<?xml version="1.0" standalone="no"?>
<!DOCTYPE svg PUBLIC "-//W3C//DTD SVG 20010904//EN"
 "http://www.w3.org/TR/2001/REC-SVG-20010904/DTD/svg10.dtd">
<svg version="1.0" xmlns="http://www.w3.org/2000/svg"
 width="6415.000000pt" height="654.000000pt" viewBox="0 0 6415.000000 654.000000"
 preserveAspectRatio="xMidYMid meet">
<metadata>
Created by potrace 1.16, written by Peter Selinger 2001-2019
</metadata>
<g transform="translate(0.000000,654.000000) scale(0.100000,-0.100000)"
fill="#000000" stroke="none">
<path d="M11559 6268 c-130 -77 -136 -83 -127 -104 l11 -23 62 34 c73 41 100
44 109 13 3 -13 6 -141 6 -285 0 -261 0 -262 -23 -289 -20 -23 -34 -28 -85
-32 -52 -4 -62 -7 -62 -23 0 -18 11 -19 220 -19 213 0 220 1 220 20 0 17 -7
20 -39 20 -50 0 -99 18 -111 40 -6 11 -10 161 -10 374 0 332 -1 356 -17 356
-10 0 -79 -37 -154 -82z"/>
<path d="M24939 6268 c-130 -77 -136 -83 -127 -104 l11 -23 62 34 c73 41 100
44 109 13 3 -13 6 -141 6 -285 0 -261 0 -262 -23 -289 -20 -23 -34 -28 -85
-32 -52 -4 -62 -7 -62 -23 0 -18 11 -19 220 -19 213 0 220 1 220 20 0 17 -7
20 -39 20 -50 0 -99 18 -111 40 -6 11 -10 161 -10 374 0 332 -1 356 -17 356
-10 0 -79 -37 -154 -82z"/>
<path d="M39169 6268 c-130 -77 -136 -83 -127 -104 l11 -23 62 34 c73 41 100
44 109 13 3 -13 6 -141 6 -285 0 -261 0 -262 -23 -289 -20 -23 -34 -28 -85
-32 -52 -4 -62 -7 -62 -23 0 -18 11 -19 220 -19 213 0 220 1 220 20 0 17 -7
20 -39 20 -50 0 -99 18 -111 40 -6 11 -10 161 -10 374 0 332 -1 356 -17 356
-10 0 -79 -37 -154 -82z"/>
<path d="M51649 6268 c-130 -77 -136 -83 -127 -104 l11 -23 62 34 c73 41 100
44 109 13 3 -13 6 -141 6 -285 0 -261 0 -262 -23 -289 -20 -23 -34 -28 -85
-32 -52 -4 -62 -7 -62 -23 0 -18 11 -19 220 -19 213 0 220 1 220 20 0 17 -7
20 -39 20 -50 0 -99 18 -111 40 -6 11 -10 161 -10 374 0 332 -1 356 -17 356
-10 0 -79 -37 -154 -82z"/>
<path d="M12639 6075 c-166 -67 -295 -212 -365 -407 -45 -127 -63 -392 -35
-538 52 -280 206 -482 425 -556 26 -9 49 -15 51 -13 2 2 6 16 10 31 6 25 3 29
-50 53 -93 44 -166 121 -218 228 -25 51 -52 122 -61 159 -27 114 -38 296 -26
426 27 289 123 463 305 553 62 30 63 31 52 60 -13 34 -15 34 -88 4z"/>
<path d="M19506 6078 c-9 -36 -9 -37 51 -65 213 -101 328 -377 310 -743 -16
-320 -119 -531 -303 -621 -59 -29 -63 -34 -57 -58 3 -14 7 -28 9 -30 5 -6 110
32 152 57 174 100 291 290 327 532 61 399 -81 766 -347 898 -111 56 -133 60
-142 30z"/>
<path d="M26029 6075 c-166 -67 -295 -212 -365 -407 -45 -127 -63 -392 -35
-538 52 -280 206 -482 425 -556 26 -9 49 -15 51 -13 2 2 6 16 10 31 6 25 3 29
-50 53 -93 44 -166 121 -218 228 -25 51 -52 122 -61 159 -27 114 -38 296 -26
426 27 289 123 463 305 553 62 30 63 31 52 60 -13 34 -15 34 -88 4z"/>
<path d="M33016 6078 c-9 -36 -9 -37 51 -65 213 -101 328 -377 310 -743 -16
-320 -119 -531 -303 -621 -59 -29 -63 -34 -57 -58 3 -14 7 -28 9 -30 5 -6 110
32 152 57 174 100 291 290 327 532 61 399 -81 766 -347 898 -111 56 -133 60
-142 30z"/>
<path d="M40249 6075 c-166 -67 -295 -212 -365 -407 -45 -127 -63 -392 -35
-538 52 -280 206 -482 425 -556 26 -9 49 -15 51 -13 2 2 6 16 10 31 6 25 3 29
-50 53 -93 44 -166 121 -218 228 -25 51 -52 122 -61 159 -27 114 -38 296 -26
426 27 289 123 463 305 553 62 30 63 31 52 60 -13 34 -15 34 -88 4z"/>
<path d="M46216 6078 c-9 -36 -9 -37 51 -65 213 -101 328 -377 310 -743 -16
-320 -119 -531 -303 -621 -59 -29 -63 -34 -57 -58 3 -14 7 -28 9 -30 5 -6 110
32 152 57 174 100 291 290 327 532 61 399 -81 766 -347 898 -111 56 -133 60
-142 30z"/>
<path d="M52729 6075 c-166 -67 -295 -212 -365 -407 -45 -127 -63 -392 -35
-538 52 -280 206 -482 425 -556 26 -9 49 -15 51 -13 2 2 6 16 10 31 6 25 3 29
-50 53 -93 44 -166 121 -218 228 -25 51 -52 122 -61 159 -27 114 -38 296 -26
426 27 289 123 463 305 553 62 30 63 31 52 60 -13 34 -15 34 -88 4z"/>
<path d="M58696 6078 c-9 -36 -9 -37 51 -65 213 -101 328 -377 310 -743 -16
-320 -119 -531 -303 -621 -59 -29 -63 -34 -57 -58 3 -14 7 -28 9 -30 5 -6 110
32 152 57 174 100 291 290 327 532 61 399 -81 766 -347 898 -111 56 -133 60
-142 30z"/>
<path d="M13013 6083 c-37 -7 -29 -38 14 -49 52 -13 59 -30 46 -111 -9 -52
-193 -873 -219 -979 -9 -34 41 -39 81 -8 39 29 41 29 99 3 60 -26 170 -29 248
-6 45 14 73 31 124 79 71 67 112 135 151 253 33 98 36 269 6 335 -39 86 -113
127 -200 110 -62 -11 -104 -38 -180 -118 -40 -41 -73 -68 -73 -61 0 8 31 137
69 287 l69 272 -107 -1 c-58 -1 -116 -4 -128 -6z m389 -492 l33 -29 0 -114 c0
-180 -49 -323 -139 -406 -54 -50 -82 -62 -141 -62 -96 0 -121 36 -112 163 8
112 47 229 106 318 101 153 181 194 253 130z"/>
<path d="M32634 6083 c-28 -5 -40 -43 -14 -43 35 0 69 -22 75 -49 5 -26 -7
-107 -40 -248 l-16 -72 -42 18 c-212 91 -444 -54 -527 -329 -31 -103 -32 -264
-3 -330 27 -59 68 -97 120 -108 104 -24 206 33 308 171 15 20 31 37 35 37 4 0
4 -17 -1 -37 -21 -91 -2 -144 59 -170 64 -27 150 7 232 91 l44 46 -22 23 -23
22 -20 -24 c-48 -59 -104 -84 -138 -62 -27 17 -11 112 94 579 58 257 105 473
105 480 0 9 -27 12 -102 11 -57 -1 -113 -4 -124 -6z m-73 -462 c24 -25 29 -38
29 -79 0 -96 -29 -223 -71 -310 -50 -104 -145 -207 -201 -217 -92 -17 -128 31
-128 170 0 157 54 310 138 394 53 53 89 69 160 70 35 1 49 -4 73 -28z"/>
<path d="M43474 6083 c-28 -5 -40 -43 -14 -43 35 0 69 -22 75 -49 5 -26 -7
-107 -40 -248 l-16 -72 -42 18 c-212 91 -444 -54 -527 -329 -31 -103 -32 -264
-3 -330 27 -59 68 -97 120 -108 104 -24 206 33 308 171 15 20 31 37 35 37 4 0
4 -17 -1 -37 -21 -91 -2 -144 59 -170 64 -27 150 7 232 91 l44 46 -22 23 -23
22 -20 -24 c-48 -59 -104 -84 -138 -62 -27 17 -11 112 94 579 58 257 105 473
105 480 0 9 -27 12 -102 11 -57 -1 -113 -4 -124 -6z m-73 -462 c24 -25 29 -38
29 -79 0 -96 -29 -223 -71 -310 -50 -104 -145 -207 -201 -217 -92 -17 -128 31
-128 170 0 157 54 310 138 394 53 53 89 69 160 70 35 1 49 -4 73 -28z"/>
<path d="M58314 6083 c-28 -5 -40 -43 -14 -43 35 0 69 -22 75 -49 5 -26 -7
-107 -40 -248 l-16 -72 -42 18 c-212 91 -444 -54 -527 -329 -31 -103 -32 -264
-3 -330 27 -59 68 -97 120 -108 104 -24 206 33 308 171 15 20 31 37 35 37 4 0
4 -17 -1 -37 -21 -91 -2 -144 59 -170 64 -27 150 7 232 91 l44 46 -22 23 -23
22 -20 -24 c-48 -59 -104 -84 -138 -62 -27 17 -11 112 94 579 58 257 105 473
105 480 0 9 -27 12 -102 11 -57 -1 -113 -4 -124 -6z m-73 -462 c24 -25 29 -38
29 -79 0 -96 -29 -223 -71 -310 -50 -104 -145 -207 -201 -217 -92 -17 -128 31
-128 170 0 157 54 310 138 394 53 53 89 69 160 70 35 1 49 -4 73 -28z"/>
<path d="M22590 5945 l0 -75 75 0 75 0 0 75 0 75 -75 0 -75 0 0 -75z"/>
<path d="M49300 5945 l0 -75 75 0 75 0 0 75 0 75 -75 0 -75 0 0 -75z"/>
<path d="M10520 5880 l0 -40 365 0 365 0 0 40 0 40 -365 0 -365 0 0 -40z"/>
<path d="M23900 5880 l0 -40 365 0 365 0 0 40 0 40 -365 0 -365 0 0 -40z"/>
<path d="M38130 5880 l0 -40 365 0 365 0 0 40 0 40 -365 0 -365 0 0 -40z"/>
<path d="M50610 5880 l0 -40 365 0 365 0 0 40 0 40 -365 0 -365 0 0 -40z"/>
<path d="M8430 5711 c-132 -23 -230 -112 -276 -251 -25 -76 -25 -243 0 -326
22 -75 78 -151 133 -182 125 -69 295 -43 410 63 l43 40 -24 26 -23 27 -49 -38
c-94 -75 -216 -78 -291 -8 -40 37 -65 136 -65 257 -1 161 33 256 111 308 75
51 188 15 212 -67 l12 -40 54 0 53 0 0 84 0 83 -57 11 c-85 16 -192 21 -243
13z"/>
<path d="M9165 5710 c-168 -25 -272 -152 -289 -356 -17 -186 48 -345 165 -404
49 -25 157 -42 222 -34 206 24 317 164 318 401 0 110 -7 152 -36 219 -42 96
-123 155 -236 174 -70 11 -72 11 -144 0z m128 -71 c97 -50 145 -183 134 -367
-7 -113 -30 -185 -73 -235 -42 -47 -63 -57 -124 -57 -89 0 -141 44 -175 148
-48 149 -26 388 43 466 46 52 140 73 195 45z"/>
<path d="M9982 5709 c-59 -10 -138 -47 -165 -77 -43 -48 -58 -142 -32 -204 22
-53 76 -94 209 -157 147 -71 170 -92 170 -164 1 -90 -44 -127 -153 -127 -77 0
-127 30 -158 93 -23 44 -26 47 -63 47 l-40 0 0 -85 0 -84 41 -11 c65 -18 208
-30 274 -23 146 14 242 98 244 214 2 103 -49 159 -225 244 -71 35 -138 73
-148 84 -23 25 -32 101 -16 130 48 90 224 78 279 -19 20 -36 26 -40 62 -40
l39 0 0 79 c0 92 7 86 -121 101 -96 11 -124 11 -197 -1z"/>
<path d="M16185 5713 c-62 -8 -152 -44 -200 -81 -120 -91 -198 -268 -198 -447
-1 -76 4 -99 26 -148 45 -98 148 -142 277 -117 76 14 131 44 196 103 l55 50
-25 25 -24 25 -47 -41 c-106 -93 -269 -98 -307 -8 -18 42 -14 186 6 263 51
193 156 313 274 313 51 0 92 -51 92 -115 0 -23 4 -25 43 -25 l43 0 18 86 c10
48 14 90 9 95 -7 7 -174 31 -198 27 -5 0 -23 -3 -40 -5z"/>
<path d="M18930 5706 c-145 -34 -264 -162 -320 -346 -31 -103 -32 -264 -3
-330 27 -59 68 -97 120 -108 104 -24 206 33 308 171 15 20 31 37 35 37 4 0 4
-17 -1 -37 -21 -91 -2 -144 59 -170 64 -27 150 7 232 91 l44 46 -22 23 -23 22
-20 -24 c-48 -59 -104 -84 -138 -62 -25 16 -12 110 54 395 36 154 65 283 65
287 0 3 -11 9 -25 12 -18 3 -38 -4 -63 -23 l-37 -27 -50 22 c-65 29 -146 37
-215 21z m154 -67 c13 -7 30 -25 37 -42 30 -72 -4 -257 -69 -382 -48 -91 -145
-191 -194 -200 -92 -17 -128 31 -128 170 0 157 54 310 138 394 65 65 152 89
216 60z"/>
<path d="M22012 5709 c-59 -10 -138 -47 -165 -77 -43 -48 -58 -142 -32 -204
22 -53 76 -94 209 -157 147 -71 170 -92 170 -164 1 -90 -44 -127 -153 -127
-77 0 -127 30 -158 93 -23 44 -26 47 -63 47 l-40 0 0 -85 0 -84 41 -11 c65
-18 208 -30 274 -23 146 14 242 98 244 214 2 103 -49 159 -225 244 -71 35
-138 73 -148 84 -23 25 -32 101 -16 130 48 90 224 78 279 -19 20 -36 26 -40
62 -40 l39 0 0 79 c0 92 7 86 -121 101 -96 11 -124 11 -197 -1z"/>
<path d="M23400 5710 c-50 -12 -120 -53 -159 -94 -50 -51 -58 -47 -53 29 l4
65 -105 0 c-119 0 -137 -4 -137 -31 0 -14 9 -21 29 -25 17 -4 38 -15 48 -26
16 -18 18 -45 18 -313 l0 -293 -24 -26 c-14 -14 -33 -26 -43 -26 -11 0 -18 -7
-18 -20 0 -19 7 -20 160 -20 146 0 160 2 160 18 0 9 -15 24 -33 32 -21 10 -36
26 -44 50 -15 45 -17 390 -2 444 15 52 85 122 140 136 87 24 161 -26 175 -118
5 -26 8 -137 8 -247 1 -221 -5 -250 -54 -268 -18 -7 -30 -19 -30 -29 0 -17 13
-18 160 -18 153 0 160 1 160 20 0 13 -7 20 -19 20 -10 0 -29 9 -42 19 -24 19
-24 21 -30 283 -6 278 -12 312 -60 377 -37 50 -135 79 -209 61z"/>
<path d="M26590 5706 c-145 -34 -264 -162 -320 -346 -31 -103 -32 -264 -3
-330 27 -59 68 -97 120 -108 104 -24 206 33 308 171 15 20 31 37 35 37 4 0 4
-17 -1 -37 -21 -91 -2 -144 59 -170 64 -27 150 7 232 91 l44 46 -22 23 -23 22
-20 -24 c-48 -59 -104 -84 -138 -62 -25 16 -12 110 54 395 36 154 65 283 65
287 0 3 -11 9 -25 12 -18 3 -38 -4 -63 -23 l-37 -27 -50 22 c-65 29 -146 37
-215 21z m154 -67 c13 -7 30 -25 37 -42 30 -72 -4 -257 -69 -382 -48 -91 -145
-191 -194 -200 -92 -17 -128 31 -128 170 0 157 54 310 138 394 65 65 152 89
216 60z"/>
<path d="M29605 5713 c-150 -21 -280 -120 -350 -268 -43 -92 -59 -162 -59
-262 0 -150 65 -239 193 -263 59 -11 127 -5 191 18 55 19 91 43 158 103 l51
46 -26 26 -26 26 -45 -39 c-67 -60 -139 -90 -212 -90 -71 0 -114 20 -129 59
-18 45 -23 100 -16 156 l6 55 67 0 c144 0 290 39 360 97 58 47 83 100 83 173
1 72 -21 114 -71 140 -37 18 -125 30 -175 23z m83 -83 c49 -46 41 -141 -17
-199 -48 -48 -112 -70 -225 -78 l-88 -6 7 24 c31 104 116 223 184 259 49 26
111 26 139 0z"/>
<path d="M36040 5711 c-132 -23 -230 -112 -276 -251 -25 -76 -25 -243 0 -326
22 -75 78 -151 133 -182 125 -69 295 -43 410 63 l43 40 -24 26 -23 27 -49 -38
c-94 -75 -216 -78 -291 -8 -40 37 -65 136 -65 257 -1 161 33 256 111 308 75
51 188 15 212 -67 l12 -40 54 0 53 0 0 84 0 83 -57 11 c-85 16 -192 21 -243
13z"/>
<path d="M36775 5710 c-168 -25 -272 -152 -289 -356 -17 -186 48 -345 165
-404 49 -25 157 -42 222 -34 206 24 317 164 318 401 0 110 -7 152 -36 219 -42
96 -123 155 -236 174 -70 11 -72 11 -144 0z m128 -71 c97 -50 145 -183 134
-367 -7 -113 -30 -185 -73 -235 -42 -47 -63 -57 -124 -57 -89 0 -141 44 -175
148 -48 149 -26 388 43 466 46 52 140 73 195 45z"/>
<path d="M37592 5709 c-59 -10 -138 -47 -165 -77 -43 -48 -58 -142 -32 -204
22 -53 76 -94 209 -157 147 -71 170 -92 170 -164 1 -90 -44 -127 -153 -127
-77 0 -127 30 -158 93 -23 44 -26 47 -63 47 l-40 0 0 -85 0 -84 41 -11 c65
-18 208 -30 274 -23 146 14 242 98 244 214 2 103 -49 159 -225 244 -71 35
-138 73 -148 84 -23 25 -32 101 -16 130 48 90 224 78 279 -19 20 -36 26 -40
62 -40 l39 0 0 79 c0 92 7 86 -121 101 -96 11 -124 11 -197 -1z"/>
<path d="M40885 5713 c-150 -21 -280 -120 -350 -268 -43 -92 -59 -162 -59
-262 0 -150 65 -239 193 -263 59 -11 127 -5 191 18 55 19 91 43 158 103 l51
46 -26 26 -26 26 -45 -39 c-67 -60 -139 -90 -212 -90 -71 0 -114 20 -129 59
-18 45 -23 100 -16 156 l6 55 67 0 c144 0 290 39 360 97 58 47 83 100 83 173
1 72 -21 114 -71 140 -37 18 -125 30 -175 23z m83 -83 c49 -46 41 -141 -17
-199 -48 -48 -112 -70 -225 -78 l-88 -6 7 24 c31 104 116 223 184 259 49 26
111 26 139 0z"/>
<path d="M45845 5713 c-62 -8 -152 -44 -200 -81 -120 -91 -198 -268 -198 -447
-1 -76 4 -99 26 -148 45 -98 148 -142 277 -117 76 14 131 44 196 103 l55 50
-25 25 -24 25 -47 -41 c-106 -93 -269 -98 -307 -8 -18 42 -14 186 6 263 51
193 156 313 274 313 51 0 92 -51 92 -115 0 -23 4 -25 43 -25 l43 0 18 86 c10
48 14 90 9 95 -7 7 -174 31 -198 27 -5 0 -23 -3 -40 -5z"/>
<path d="M48722 5709 c-59 -10 -138 -47 -165 -77 -43 -48 -58 -142 -32 -204
22 -53 76 -94 209 -157 147 -71 170 -92 170 -164 1 -90 -44 -127 -153 -127
-77 0 -127 30 -158 93 -23 44 -26 47 -63 47 l-40 0 0 -85 0 -84 41 -11 c65
-18 208 -30 274 -23 146 14 242 98 244 214 2 103 -49 159 -225 244 -71 35
-138 73 -148 84 -23 25 -32 101 -16 130 48 90 224 78 279 -19 20 -36 26 -40
62 -40 l39 0 0 79 c0 92 7 86 -121 101 -96 11 -124 11 -197 -1z"/>
<path d="M50110 5710 c-50 -12 -120 -53 -159 -94 -50 -51 -58 -47 -53 29 l4
65 -105 0 c-119 0 -137 -4 -137 -31 0 -14 9 -21 29 -25 17 -4 38 -15 48 -26
16 -18 18 -45 18 -313 l0 -293 -24 -26 c-14 -14 -33 -26 -43 -26 -11 0 -18 -7
-18 -20 0 -19 7 -20 160 -20 146 0 160 2 160 18 0 9 -15 24 -33 32 -21 10 -36
26 -44 50 -15 45 -17 390 -2 444 15 52 85 122 140 136 87 24 161 -26 175 -118
5 -26 8 -137 8 -247 1 -221 -5 -250 -54 -268 -18 -7 -30 -19 -30 -29 0 -17 13
-18 160 -18 153 0 160 1 160 20 0 13 -7 20 -19 20 -10 0 -29 9 -42 19 -24 19
-24 21 -30 283 -6 278 -12 312 -60 377 -37 50 -135 79 -209 61z"/>
<path d="M53355 5713 c-62 -8 -152 -44 -200 -81 -120 -91 -198 -268 -198 -447
-1 -76 4 -99 26 -148 45 -98 148 -142 277 -117 76 14 131 44 196 103 l55 50
-25 25 -24 25 -47 -41 c-106 -93 -269 -98 -307 -8 -18 42 -14 186 6 263 51
193 156 313 274 313 51 0 92 -51 92 -115 0 -23 4 -25 43 -25 l43 0 18 86 c10
48 14 90 9 95 -7 7 -174 31 -198 27 -5 0 -23 -3 -40 -5z"/>
<path d="M55725 5713 c-150 -21 -280 -120 -350 -268 -43 -92 -59 -162 -59
-262 0 -150 65 -239 193 -263 59 -11 127 -5 191 18 55 19 91 43 158 103 l51
46 -26 26 -26 26 -45 -39 c-67 -60 -139 -90 -212 -90 -71 0 -114 20 -129 59
-18 45 -23 100 -16 156 l6 55 67 0 c144 0 290 39 360 97 58 47 83 100 83 173
1 72 -21 114 -71 140 -37 18 -125 30 -175 23z m83 -83 c49 -46 41 -141 -17
-199 -48 -48 -112 -70 -225 -78 l-88 -6 7 24 c31 104 116 223 184 259 49 26
111 26 139 0z"/>
<path d="M20886 5588 c7 -68 11 -124 9 -126 -1 -2 -49 29 -104 69 -56 39 -103
70 -105 68 -12 -16 -46 -78 -46 -83 0 -4 51 -31 113 -60 l112 -54 -110 -52
c-60 -28 -112 -53 -114 -55 -5 -6 42 -85 51 -85 4 0 51 31 105 69 54 38 99 68
100 67 2 -1 -2 -40 -7 -87 -5 -46 -10 -101 -10 -121 l0 -38 51 0 52 0 -7 68
c-3 37 -9 94 -13 127 l-6 60 34 -26 c82 -61 167 -119 176 -119 8 0 20 19 51
82 2 3 -7 9 -19 13 -12 4 -64 28 -115 52 l-94 46 63 29 c34 17 86 41 115 54
l53 23 -15 28 c-37 70 -32 71 -140 -7 -55 -38 -101 -68 -103 -66 -2 2 1 50 7
106 15 151 18 140 -43 140 l-53 0 12 -122z"/>
<path d="M22503 5703 c-26 -10 -14 -43 16 -49 17 -4 38 -15 48 -26 16 -18 18
-45 18 -313 l0 -293 -24 -26 c-14 -14 -33 -26 -43 -26 -11 0 -18 -7 -18 -20 0
-19 7 -20 160 -20 146 0 160 2 160 18 0 9 -15 24 -33 32 -52 24 -56 49 -56
408 l-1 322 -107 -1 c-60 0 -114 -3 -120 -6z"/>
<path d="M41976 5588 c7 -68 11 -124 9 -126 -1 -2 -49 29 -104 69 -56 39 -103
70 -105 68 -12 -16 -46 -78 -46 -83 0 -4 51 -31 113 -60 l112 -54 -110 -52
c-60 -28 -112 -53 -114 -55 -5 -6 42 -85 51 -85 4 0 51 31 105 69 54 38 99 68
100 67 2 -1 -2 -40 -7 -87 -5 -46 -10 -101 -10 -121 l0 -38 51 0 52 0 -7 68
c-3 37 -9 94 -13 127 l-6 60 34 -26 c82 -61 167 -119 176 -119 8 0 20 19 51
82 2 3 -7 9 -19 13 -12 4 -64 28 -115 52 l-94 46 63 29 c34 17 86 41 115 54
l53 23 -15 28 c-37 70 -32 71 -140 -7 -55 -38 -101 -68 -103 -66 -2 2 1 50 7
106 15 151 18 140 -43 140 l-53 0 12 -122z"/>
<path d="M44536 5588 c7 -68 11 -124 9 -126 -1 -2 -49 29 -104 69 -56 39 -103
70 -105 68 -12 -16 -46 -78 -46 -83 0 -4 51 -31 113 -60 l112 -54 -110 -52
c-60 -28 -112 -53 -114 -55 -5 -6 42 -85 51 -85 4 0 51 31 105 69 54 38 99 68
100 67 2 -1 -2 -40 -7 -87 -5 -46 -10 -101 -10 -121 l0 -38 51 0 52 0 -7 68
c-3 37 -9 94 -13 127 l-6 60 34 -26 c82 -61 167 -119 176 -119 8 0 20 19 51
82 2 3 -7 9 -19 13 -12 4 -64 28 -115 52 l-94 46 63 29 c34 17 86 41 115 54
l53 23 -15 28 c-37 70 -32 71 -140 -7 -55 -38 -101 -68 -103 -66 -2 2 1 50 7
106 15 151 18 140 -43 140 l-53 0 12 -122z"/>
<path d="M47596 5588 c7 -68 11 -124 9 -126 -1 -2 -49 29 -104 69 -56 39 -103
70 -105 68 -12 -16 -46 -78 -46 -83 0 -4 51 -31 113 -60 l112 -54 -110 -52
c-60 -28 -112 -53 -114 -55 -5 -6 42 -85 51 -85 4 0 51 31 105 69 54 38 99 68
100 67 2 -1 -2 -40 -7 -87 -5 -46 -10 -101 -10 -121 l0 -38 51 0 52 0 -7 68
c-3 37 -9 94 -13 127 l-6 60 34 -26 c82 -61 167 -119 176 -119 8 0 20 19 51
82 2 3 -7 9 -19 13 -12 4 -64 28 -115 52 l-94 46 63 29 c34 17 86 41 115 54
l53 23 -15 28 c-37 70 -32 71 -140 -7 -55 -38 -101 -68 -103 -66 -2 2 1 50 7
106 15 151 18 140 -43 140 l-53 0 12 -122z"/>
<path d="M49213 5703 c-26 -10 -14 -43 16 -49 17 -4 38 -15 48 -26 16 -18 18
-45 18 -313 l0 -293 -24 -26 c-14 -14 -33 -26 -43 -26 -11 0 -18 -7 -18 -20 0
-19 7 -20 160 -20 146 0 160 2 160 18 0 9 -15 24 -33 32 -52 24 -56 49 -56
408 l-1 322 -107 -1 c-60 0 -114 -3 -120 -6z"/>
<path d="M54406 5588 c7 -68 11 -124 9 -126 -1 -2 -49 29 -104 69 -56 39 -103
70 -105 68 -12 -16 -46 -78 -46 -83 0 -4 51 -31 113 -60 l112 -54 -110 -52
c-60 -28 -112 -53 -114 -55 -5 -6 42 -85 51 -85 4 0 51 31 105 69 54 38 99 68
100 67 2 -1 -2 -40 -7 -87 -5 -46 -10 -101 -10 -121 l0 -38 51 0 52 0 -7 68
c-3 37 -9 94 -13 127 l-6 60 34 -26 c82 -61 167 -119 176 -119 8 0 20 19 51
82 2 3 -7 9 -19 13 -12 4 -64 28 -115 52 l-94 46 63 29 c34 17 86 41 115 54
l53 23 -15 28 c-37 70 -32 71 -140 -7 -55 -38 -101 -68 -103 -66 -2 2 1 50 7
106 15 151 18 140 -43 140 l-53 0 12 -122z"/>
<path d="M56816 5588 c7 -68 11 -124 9 -126 -1 -2 -49 29 -104 69 -56 39 -103
70 -105 68 -12 -16 -46 -78 -46 -83 0 -4 51 -31 113 -60 l112 -54 -110 -52
c-60 -28 -112 -53 -114 -55 -5 -6 42 -85 51 -85 4 0 51 31 105 69 54 38 99 68
100 67 2 -1 -2 -40 -7 -87 -5 -46 -10 -101 -10 -121 l0 -38 51 0 52 0 -7 68
c-3 37 -9 94 -13 127 l-6 60 34 -26 c82 -61 167 -119 176 -119 8 0 20 19 51
82 2 3 -7 9 -19 13 -12 4 -64 28 -115 52 l-94 46 63 29 c34 17 86 41 115 54
l53 23 -15 28 c-37 70 -32 71 -140 -7 -55 -38 -101 -68 -103 -66 -2 2 1 50 7
106 15 151 18 140 -43 140 l-53 0 12 -122z"/>
<path d="M14200 5405 l0 -55 500 0 500 0 0 55 0 55 -500 0 -500 0 0 -55z"/>
<path d="M17010 5405 l0 -55 500 0 500 0 0 55 0 55 -500 0 -500 0 0 -55z"/>
<path d="M27620 5405 l0 -55 500 0 500 0 0 55 0 55 -500 0 -500 0 0 -55z"/>
<path d="M30470 5405 l0 -55 500 0 500 0 0 55 0 55 -500 0 -500 0 0 -55z"/>
<path d="M34600 4685 l0 -235 -220 0 -220 0 0 -55 0 -55 220 0 220 0 0 -235 0
-235 60 0 60 0 0 235 0 235 220 0 220 0 0 55 0 55 -220 0 -220 0 0 235 0 235
-60 0 -60 0 0 -235z"/>
<path d="M8040 4395 l0 -55 12810 0 12810 0 0 55 0 55 -12810 0 -12810 0 0
-55z"/>
<path d="M35650 4395 l0 -55 11845 0 11845 0 0 55 0 55 -11845 0 -11845 0 0
-55z"/>
<path d="M20735 4090 c-99 -60 -184 -111 -189 -112 -4 -2 0 -18 10 -34 l19
-31 85 49 c89 51 100 54 131 38 18 -10 19 -25 19 -398 0 -334 -2 -391 -16
-410 -23 -34 -53 -45 -129 -51 -67 -6 -70 -7 -73 -33 l-3 -28 300 0 301 0 0
25 c0 26 -3 27 -114 40 -64 7 -93 26 -106 72 -8 26 -10 187 -8 511 l3 472 -25
-1 c-14 0 -106 -49 -205 -109z"/>
<path d="M47375 4090 c-99 -60 -184 -111 -189 -112 -4 -2 0 -18 10 -34 l19
-31 85 49 c89 51 100 54 131 38 18 -10 19 -25 19 -398 0 -334 -2 -391 -16
-410 -23 -34 -53 -45 -129 -51 -67 -6 -70 -7 -73 -33 l-3 -28 300 0 301 0 0
25 c0 26 -3 27 -114 40 -64 7 -93 26 -106 72 -8 26 -10 187 -8 511 l3 472 -25
-1 c-14 0 -106 -49 -205 -109z"/>
<path d="M4916 3434 c-9 -22 -9 -22 23 -38 42 -22 61 -70 140 -348 l71 -247
-40 -178 c-23 -102 -48 -188 -58 -203 -10 -14 -33 -29 -50 -35 -21 -6 -32 -16
-32 -27 0 -17 13 -18 169 -18 145 0 170 2 175 16 9 23 8 24 -22 24 -39 0 -62
28 -62 76 0 21 14 108 32 192 l33 154 190 246 c169 219 243 305 314 365 12 9
21 22 21 27 0 6 -58 10 -155 10 -154 0 -155 0 -155 -23 0 -14 9 -26 23 -32 29
-13 33 -53 9 -107 -14 -33 -230 -335 -272 -381 -9 -10 -110 358 -110 403 0 57
10 78 41 89 19 7 29 17 29 30 0 20 -5 21 -154 21 -131 0 -155 -2 -160 -16z"/>
<path d="M6460 2985 l0 -55 500 0 500 0 0 55 0 55 -500 0 -500 0 0 -55z"/>
<path d="M8040 2815 l0 -55 25650 0 25650 0 0 55 0 55 -25650 0 -25650 0 0
-55z"/>
<path d="M6460 2645 l0 -55 500 0 500 0 0 55 0 55 -500 0 -500 0 0 -55z"/>
<path d="M26398 2433 l-58 -4 -13 -47 c-8 -26 -97 -333 -197 -682 -101 -349
-186 -638 -190 -643 -3 -4 -69 130 -145 298 -76 168 -142 308 -145 310 -13 8
-260 -109 -260 -123 0 -7 5 -22 10 -32 10 -18 13 -18 77 11 36 16 67 28 69 26
2 -2 78 -163 168 -358 l165 -354 43 -3 43 -3 215 737 c118 405 218 741 222
747 6 9 840 13 3378 15 l3370 2 0 55 0 55 -3347 -2 c-1842 -1 -3374 -3 -3405
-5z"/>
<path d="M35728 2433 l-58 -4 -13 -47 c-8 -26 -97 -333 -197 -682 -101 -349
-186 -638 -190 -643 -3 -4 -69 130 -145 298 -76 168 -142 308 -145 310 -13 8
-260 -109 -260 -123 0 -7 5 -22 10 -32 10 -18 13 -18 77 11 36 16 67 28 69 26
2 -2 78 -163 168 -358 l165 -354 43 -3 43 -3 215 737 c118 405 218 741 222
747 6 9 786 13 3158 15 l3150 2 0 55 0 55 -3127 -2 c-1721 -1 -3154 -3 -3185
-5z"/>
<path d="M29643 2123 c-37 -7 -29 -38 14 -49 52 -13 59 -30 46 -111 -9 -52
-193 -873 -219 -979 -9 -34 41 -39 81 -8 39 29 41 29 99 3 60 -26 170 -29 248
-6 45 14 73 31 124 79 71 67 112 135 151 253 33 98 36 269 6 335 -39 86 -113
127 -200 110 -62 -11 -104 -38 -180 -118 -40 -41 -73 -68 -73 -61 0 8 31 137
69 287 l69 272 -107 -1 c-58 -1 -116 -4 -128 -6z m389 -492 l33 -29 0 -114 c0
-180 -49 -323 -139 -406 -54 -50 -82 -62 -141 -62 -96 0 -121 36 -112 163 8
112 47 229 106 318 101 153 181 194 253 130z"/>
<path d="M38823 2123 c-37 -7 -29 -38 14 -49 52 -13 59 -30 46 -111 -9 -52
-193 -873 -219 -979 -9 -34 41 -39 81 -8 39 29 41 29 99 3 60 -26 170 -29 248
-6 45 14 73 31 124 79 71 67 112 135 151 253 33 98 36 269 6 335 -39 86 -113
127 -200 110 -62 -11 -104 -38 -180 -118 -40 -41 -73 -68 -73 -61 0 8 31 137
69 287 l69 272 -107 -1 c-58 -1 -116 -4 -128 -6z m389 -492 l33 -29 0 -114 c0
-180 -49 -323 -139 -406 -54 -50 -82 -62 -141 -62 -96 0 -121 36 -112 163 8
112 47 229 106 318 101 153 181 194 253 130z"/>
<path d="M31270 1735 l0 -235 -220 0 -220 0 0 -55 0 -55 220 0 220 0 0 -235 0
-235 60 0 60 0 0 235 0 235 220 0 220 0 0 55 0 55 -220 0 -220 0 0 235 0 235
-60 0 -60 0 0 -235z"/>
<path d="M37540 1735 l0 -235 -220 0 -220 0 0 -55 0 -55 220 0 220 0 0 -235 0
-235 60 0 60 0 0 235 0 235 220 0 220 0 0 55 0 55 -220 0 -220 0 0 235 0 235
-60 0 -60 0 0 -235z"/>
<path d="M26890 1746 c-145 -34 -264 -162 -320 -346 -31 -103 -32 -264 -3
-330 27 -59 68 -97 120 -108 104 -24 206 33 308 171 15 20 31 37 35 37 4 0 4
-17 -1 -37 -21 -91 -2 -144 59 -170 64 -27 150 7 232 91 l44 46 -22 23 -23 22
-20 -24 c-48 -59 -104 -84 -138 -62 -25 16 -12 110 54 395 36 154 65 283 65
287 0 3 -11 9 -25 12 -18 3 -38 -4 -63 -23 l-37 -27 -50 22 c-65 29 -146 37
-215 21z m154 -67 c13 -7 30 -25 37 -42 30 -72 -4 -257 -69 -382 -48 -91 -145
-191 -194 -200 -92 -17 -128 31 -128 170 0 157 54 310 138 394 65 65 152 89
216 60z"/>
<path d="M32815 1753 c-62 -8 -152 -44 -200 -81 -120 -91 -198 -268 -198 -447
-1 -76 4 -99 26 -148 45 -98 148 -142 277 -117 76 14 131 44 196 103 l55 50
-25 25 -24 25 -47 -41 c-106 -93 -269 -98 -307 -8 -18 42 -14 186 6 263 51
193 156 313 274 313 51 0 92 -51 92 -115 0 -23 4 -25 43 -25 l43 0 18 86 c10
48 14 90 9 95 -7 7 -174 31 -198 27 -5 0 -23 -3 -40 -5z"/>
<path d="M36275 1753 c-62 -8 -152 -44 -200 -81 -120 -91 -198 -268 -198 -447
-1 -76 4 -99 26 -148 45 -98 148 -142 277 -117 76 14 131 44 196 103 l55 50
-25 25 -24 25 -47 -41 c-106 -93 -269 -98 -307 -8 -18 42 -14 186 6 263 51
193 156 313 274 313 51 0 92 -51 92 -115 0 -23 4 -25 43 -25 l43 0 18 86 c10
48 14 90 9 95 -7 7 -174 31 -198 27 -5 0 -23 -3 -40 -5z"/>
<path d="M41500 1746 c-145 -34 -264 -162 -320 -346 -31 -103 -32 -264 -3
-330 27 -59 68 -97 120 -108 104 -24 206 33 308 171 15 20 31 37 35 37 4 0 4
-17 -1 -37 -21 -91 -2 -144 59 -170 64 -27 150 7 232 91 l44 46 -22 23 -23 22
-20 -24 c-48 -59 -104 -84 -138 -62 -25 16 -12 110 54 395 36 154 65 283 65
287 0 3 -11 9 -25 12 -18 3 -38 -4 -63 -23 l-37 -27 -50 22 c-65 29 -146 37
-215 21z m154 -67 c13 -7 30 -25 37 -42 30 -72 -4 -257 -69 -382 -48 -91 -145
-191 -194 -200 -92 -17 -128 31 -128 170 0 157 54 310 138 394 65 65 152 89
216 60z"/>
<path d="M33876 1628 c7 -68 11 -124 9 -126 -1 -2 -49 29 -104 69 -56 39 -103
70 -105 68 -12 -16 -46 -78 -46 -83 0 -4 51 -31 113 -60 l112 -54 -110 -52
c-60 -28 -112 -53 -114 -55 -5 -6 42 -85 51 -85 4 0 51 31 105 69 54 38 99 68
100 67 2 -1 -2 -40 -7 -87 -5 -46 -10 -101 -10 -121 l0 -38 51 0 52 0 -7 68
c-3 37 -9 94 -13 127 l-6 60 34 -26 c82 -61 167 -119 176 -119 8 0 20 19 51
82 2 3 -7 9 -19 13 -12 4 -64 28 -115 52 l-94 46 63 29 c34 17 86 41 115 54
l53 23 -15 28 c-37 70 -32 71 -140 -7 -55 -38 -101 -68 -103 -66 -2 2 1 50 7
106 15 151 18 140 -43 140 l-53 0 12 -122z"/>
<path d="M40256 1628 c7 -68 11 -124 9 -126 -1 -2 -49 29 -104 69 -56 39 -103
70 -105 68 -12 -16 -46 -78 -46 -83 0 -4 51 -31 113 -60 l112 -54 -110 -52
c-60 -28 -112 -53 -114 -55 -5 -6 42 -85 51 -85 4 0 51 31 105 69 54 38 99 68
100 67 2 -1 -2 -40 -7 -87 -5 -46 -10 -101 -10 -121 l0 -38 51 0 52 0 -7 68
c-3 37 -9 94 -13 127 l-6 60 34 -26 c82 -61 167 -119 176 -119 8 0 20 19 51
82 2 3 -7 9 -19 13 -12 4 -64 28 -115 52 l-94 46 63 29 c34 17 86 41 115 54
l53 23 -15 28 c-37 70 -32 71 -140 -7 -55 -38 -101 -68 -103 -66 -2 2 1 50 7
106 15 151 18 140 -43 140 l-53 0 12 -122z"/>
<path d="M27910 1445 l0 -55 500 0 500 0 0 55 0 55 -500 0 -500 0 0 -55z"/>
</g>
</svg>
